<?xml version="1.0" encoding="UTF-8" standalone="no"?>
<!-- Created with Inkscape (http://www.inkscape.org/) -->
<svg
   xmlns:svg="http://www.w3.org/2000/svg"
   xmlns="http://www.w3.org/2000/svg"
   xmlns:xlink="http://www.w3.org/1999/xlink"
   version="1.0"
   width="1062.9921"
   height="855.35431"
   id="svg11533">
  <defs
     id="defs11536">
    <linearGradient
       id="linearGradient3431">
      <stop
         id="stop3433"
         style="stop-color:#7fd3f3;stop-opacity:1"
         offset="0" />
      <stop
         id="stop3435"
         style="stop-color:#017cc2;stop-opacity:1"
         offset="1" />
    </linearGradient>
    <clipPath
       id="clipPath2566">
      <path
         d="M 426.85,73.228 L 426.85,26.412 L 539.619,26.412 L 539.619,73.228"
         id="path2568" />
    </clipPath>
    <clipPath
       id="clipPath2546">
      <path
         d="M 426.85,73.228 L 426.85,26.412 L 539.619,26.412 L 539.619,73.228"
         id="path2548" />
    </clipPath>
    <clipPath
       id="clipPath2458">
      <path
         d="M 426.852,16.344 L 539.622,16.344 L 539.622,73.224 L 426.852,73.224 L 426.852,16.344 z"
         id="path2460" />
    </clipPath>
    <clipPath
       id="clipPath2702">
      <path
         d="M 136.842,126.206 L 136.842,89.01 L 221.901,89.01 L 221.901,126.206"
         id="path2704" />
    </clipPath>
    <clipPath
       id="clipPath2694">
      <path
         d="M 136.773,89.01 L 221.976,89.01 L 221.976,126.207 L 136.773,126.207 L 136.773,89.01 z"
         id="path2696" />
    </clipPath>
    <clipPath
       id="clipPath3098">
      <path
         d="M 448.155,589.898 L 548.995,589.898 L 548.995,630.637 L 448.155,630.637 L 448.155,589.898 z"
         id="path3100" />
    </clipPath>
    <clipPath
       id="clipPath2634">
      <path
         d="M 350.521,153.92 L 340.986,163.455 L 331.45,153.92 L 340.986,144.384 L 350.521,153.92 z"
         id="path2636" />
    </clipPath>
    <clipPath
       id="clipPath2622">
      <path
         d="M 297.638,126.142 L 384.638,126.142 L 384.638,163.942 L 297.638,163.942 L 297.638,126.142 z"
         id="path2624" />
    </clipPath>
    <clipPath
       id="clipPath2614">
      <path
         d="M 297.638,163.942 L 384.638,163.942 L 384.638,126.142 L 297.638,126.142 L 297.638,163.942 z"
         id="path2616" />
    </clipPath>
    <clipPath
       id="clipPath2606">
      <path
         d="M 297.639,126.144 L 384.111,126.144 L 384.111,162.828 L 297.639,162.828 L 297.639,126.144 z"
         id="path2608" />
    </clipPath>
    <clipPath
       id="clipPath2989">
      <path
         d="M 297.639,126.144 L 384.111,126.144 L 384.111,162.828 L 297.639,162.828 L 297.639,126.144 z"
         id="path2991" />
    </clipPath>
    <clipPath
       id="clipPath2985">
      <path
         d="M 297.638,163.942 L 384.638,163.942 L 384.638,126.142 L 297.638,126.142 L 297.638,163.942 z"
         id="path2987" />
    </clipPath>
    <clipPath
       id="clipPath2981">
      <path
         d="M 297.638,126.142 L 384.638,126.142 L 384.638,163.942 L 297.638,163.942 L 297.638,126.142 z"
         id="path2983" />
    </clipPath>
    <clipPath
       id="clipPath2977">
      <path
         d="M 350.521,153.92 L 340.986,163.455 L 331.45,153.92 L 340.986,144.384 L 350.521,153.92 z"
         id="path2979" />
    </clipPath>
    <clipPath
       id="clipPath2973">
      <path
         d="M 448.155,589.898 L 548.995,589.898 L 548.995,630.637 L 448.155,630.637 L 448.155,589.898 z"
         id="path2975" />
    </clipPath>
    <clipPath
       id="clipPath2969">
      <path
         d="M 136.773,89.01 L 221.976,89.01 L 221.976,126.207 L 136.773,126.207 L 136.773,89.01 z"
         id="path2971" />
    </clipPath>
    <clipPath
       id="clipPath2965">
      <path
         d="M 136.842,126.206 L 136.842,89.01 L 221.901,89.01 L 221.901,126.206"
         id="path2967" />
    </clipPath>
    <clipPath
       id="clipPath2961">
      <path
         d="M 426.852,16.344 L 539.622,16.344 L 539.622,73.224 L 426.852,73.224 L 426.852,16.344 z"
         id="path2963" />
    </clipPath>
    <clipPath
       id="clipPath2957">
      <path
         d="M 426.85,73.228 L 426.85,26.412 L 539.619,26.412 L 539.619,73.228"
         id="path2959" />
    </clipPath>
    <clipPath
       id="clipPath2953">
      <path
         d="M 426.85,73.228 L 426.85,26.412 L 539.619,26.412 L 539.619,73.228"
         id="path2955" />
    </clipPath>
    <clipPath
       id="clipPath5596">
      <path
         d="M 403.659,59.76 L 426.645,59.76 L 426.645,87.165 L 403.659,87.165 L 403.659,59.76 z"
         id="path5598" />
    </clipPath>
    <clipPath
       id="clipPath5604">
      <path
         d="M 403.659,87.165 L 403.659,59.764 L 425.07,59.764 L 425.07,87.165"
         id="path5606" />
    </clipPath>
    <clipPath
       id="clipPath5452">
      <path
         d="M 362.556,59.76 L 395.037,59.76 L 395.037,85.104 L 362.556,85.104 L 362.556,59.76 z"
         id="path5454" />
    </clipPath>
    <clipPath
       id="clipPath5580">
      <path
         d="M 362.557,85.106 L 362.557,59.764 L 395.039,59.764 L 395.039,85.106"
         id="path5582" />
    </clipPath>
    <clipPath
       id="clipPath3372">
      <path
         d="M 297.639,126.144 L 384.111,126.144 L 384.111,162.828 L 297.639,162.828 L 297.639,126.144 z"
         id="path3374" />
    </clipPath>
    <clipPath
       id="clipPath3368">
      <path
         d="M 297.638,163.942 L 384.638,163.942 L 384.638,126.142 L 297.638,126.142 L 297.638,163.942 z"
         id="path3370" />
    </clipPath>
    <clipPath
       id="clipPath3364">
      <path
         d="M 297.638,126.142 L 384.638,126.142 L 384.638,163.942 L 297.638,163.942 L 297.638,126.142 z"
         id="path3366" />
    </clipPath>
    <clipPath
       id="clipPath3360">
      <path
         d="M 350.521,153.92 L 340.986,163.455 L 331.45,153.92 L 340.986,144.384 L 350.521,153.92 z"
         id="path3362" />
    </clipPath>
    <clipPath
       id="clipPath3356">
      <path
         d="M 448.155,589.898 L 548.995,589.898 L 548.995,630.637 L 448.155,630.637 L 448.155,589.898 z"
         id="path3358" />
    </clipPath>
    <clipPath
       id="clipPath3352">
      <path
         d="M 136.773,89.01 L 221.976,89.01 L 221.976,126.207 L 136.773,126.207 L 136.773,89.01 z"
         id="path3354" />
    </clipPath>
    <clipPath
       id="clipPath3348">
      <path
         d="M 136.842,126.206 L 136.842,89.01 L 221.901,89.01 L 221.901,126.206"
         id="path3350" />
    </clipPath>
    <clipPath
       id="clipPath3344">
      <path
         d="M 426.852,16.344 L 539.622,16.344 L 539.622,73.224 L 426.852,73.224 L 426.852,16.344 z"
         id="path3346" />
    </clipPath>
    <clipPath
       id="clipPath3340">
      <path
         d="M 426.85,73.228 L 426.85,26.412 L 539.619,26.412 L 539.619,73.228"
         id="path3342" />
    </clipPath>
    <clipPath
       id="clipPath3336">
      <path
         d="M 426.85,73.228 L 426.85,26.412 L 539.619,26.412 L 539.619,73.228"
         id="path3338" />
    </clipPath>
    <clipPath
       id="clipPath3332">
      <path
         d="M 403.659,59.76 L 426.645,59.76 L 426.645,87.165 L 403.659,87.165 L 403.659,59.76 z"
         id="path3334" />
    </clipPath>
    <clipPath
       id="clipPath3328">
      <path
         d="M 403.659,87.165 L 403.659,59.764 L 425.07,59.764 L 425.07,87.165"
         id="path3330" />
    </clipPath>
    <clipPath
       id="clipPath3324">
      <path
         d="M 362.556,59.76 L 395.037,59.76 L 395.037,85.104 L 362.556,85.104 L 362.556,59.76 z"
         id="path3326" />
    </clipPath>
    <clipPath
       id="clipPath3320">
      <path
         d="M 362.557,85.106 L 362.557,59.764 L 395.039,59.764 L 395.039,85.106"
         id="path3322" />
    </clipPath>
    <clipPath
       id="clipPath5328">
      <path
         d="M 326.178,59.76 L 354.798,59.76 L 354.798,85.104 L 326.178,85.104 L 326.178,59.76 z"
         id="path5330" />
    </clipPath>
    <radialGradient
       cx="307.88284"
       cy="189.88792"
       r="388.89389"
       fx="307.88284"
       fy="189.88792"
       id="radialGradient3437"
       xlink:href="#linearGradient3431"
       gradientUnits="userSpaceOnUse"
       gradientTransform="matrix(1.5230958,1.6324196,-1.5000173,1.3995588,123.78293,-579.48703)" />
    <radialGradient
       cx="307.88284"
       cy="189.88792"
       r="388.89389"
       fx="307.88284"
       fy="189.88792"
       id="radialGradient3453"
       xlink:href="#linearGradient3431"
       gradientUnits="userSpaceOnUse"
       gradientTransform="matrix(1.5230958,1.6324196,-1.5000173,1.3995588,123.78293,-579.48703)" />
    <radialGradient
       cx="307.88284"
       cy="189.88792"
       r="388.89389"
       fx="307.88284"
       fy="189.88792"
       id="radialGradient2510"
       xlink:href="#linearGradient3431"
       gradientUnits="userSpaceOnUse"
       gradientTransform="matrix(1.5230958,1.6324196,-1.5000173,1.3995588,81.913399,-616.67808)" />
  </defs>
  <path
     d="M 138.7047,35.424453 L 916.49249,35.424453 L 916.49249,816.12218 L 138.7047,816.12218 L 138.7047,35.424453 z"
     id="path5332"
     style="fill:#ffffff;fill-opacity:1;fill-rule:nonzero;stroke:none" />
  <path
     d="M 88.740539,799.96277 L 81.899099,799.96277 C 81.032309,797.20762 80.877529,792.0688 80.877529,790.83054 C 80.877529,788.32304 80.475089,785.75363 75.800629,785.75363 L 65.739689,785.75363 L 65.739689,799.96277 L 59.703129,799.96277 L 59.703129,765.29123 L 75.800629,765.29123 C 81.310929,765.29123 87.440359,767.24151 87.440359,774.94973 C 87.440359,779.31463 85.613909,781.41969 83.694589,782.75083 C 85.273389,783.64857 86.635479,785.1345 86.821219,789.066 L 87.068879,795.07161 C 87.130789,796.80518 87.316529,797.14571 88.740539,797.95058 L 88.740539,799.96277 z M 81.279969,775.41408 C 81.279969,771.04919 78.277169,770.67771 76.110189,770.67771 L 65.739689,770.67771 L 65.739689,780.3362 L 75.336279,780.3362 C 78.524819,780.3362 81.279969,779.59324 81.279969,775.41408 M 109.76016,782.99848 C 109.76016,762.47417 93.105439,746.03615 72.581129,746.03615 C 52.056816,746.03615 35.433053,762.47417 35.433053,782.99848 C 35.433053,803.52279 52.056816,819.92986 72.581129,819.92986 C 93.105439,819.92986 109.76016,803.52279 109.76016,782.99848 M 104.12603,782.99848 C 104.12603,800.42712 90.752729,814.54339 72.581129,814.54339 C 54.440484,814.54339 41.067178,800.42712 41.067178,782.99848 C 41.067178,765.56985 54.378571,751.45358 72.581129,751.45358 C 90.814639,751.45358 104.12603,765.56985 104.12603,782.99848"
     id="path5336"
     style="fill:#1790cd;fill-opacity:1;fill-rule:nonzero;stroke:none" />
  <path
     d="M 916.49249,460.58416 L 875.97013,460.58416 C 863.86605,460.58416 854.79573,463.40122 848.54247,467.9209 L 848.54247,460.58416 L 788.79599,460.58416 C 779.32323,460.58416 767.9002,462.87496 762.6066,467.9209 L 762.6066,460.58416 L 655.83684,460.58416 L 655.83684,467.9209 C 647.29278,461.88434 632.99077,460.58416 626.24221,460.58416 L 555.75374,460.58416 L 555.75374,467.9209 C 549.00517,461.41999 534.20786,460.58416 525.13753,460.58416 L 446.10501,460.58416 L 428.02628,480.14881 L 411.21678,460.58416 L 293.36451,460.58416 L 293.36451,588.18779 L 409.01885,588.18779 L 427.56193,568.31357 L 445.11439,588.12588 L 516.31487,588.18779 L 516.31487,558.09785 L 523.40396,558.09785 C 532.8148,558.09785 543.95923,557.88116 553.67964,553.702 L 553.67964,588.18779 L 612.6522,588.18779 L 612.6522,554.78548 L 615.53118,554.78548 C 619.12216,554.75453 619.40077,555.06409 619.40077,558.46933 L 619.40077,588.18779 L 797.92822,588.18779 C 809.16551,588.18779 821.26959,585.27786 827.80146,580.10809 L 827.80146,588.18779 L 884.39036,588.18779 C 896.12296,588.18779 907.73174,586.48517 916.49249,582.33697 L 916.49249,816.12218 L 138.7047,816.12218 L 138.7047,430.80379 L 176.03851,430.80379 L 184.45874,410.34139 L 203.28043,410.34139 L 211.73162,430.80379 L 285.22289,430.80379 L 285.22289,415.23255 L 291.81668,430.83474 L 329.86249,430.83474 L 336.48723,414.9849 L 336.48723,430.80379 L 519.03906,430.80379 L 519.0081,397.40148 L 522.56813,397.40148 C 525.19945,397.40148 525.81858,397.71105 525.81858,401.76638 L 525.81858,430.80379 L 620.26756,430.80379 L 620.2366,422.87887 C 627.75909,426.96515 639.58456,430.80379 655.31058,430.80379 L 695.02806,430.80379 L 703.60307,410.34139 L 722.42476,410.34139 L 730.87595,430.80379 L 807.21524,430.80379 L 807.21524,411.42488 L 818.94784,430.80379 L 880.27312,430.80379 L 880.27312,303.20015 L 819.62889,303.20015 L 819.62889,318.24512 L 810.93005,303.20015 L 748.61415,303.20015 L 748.61415,318.24512 L 740.96784,303.20015 L 656.7965,303.20015 C 642.61832,303.20015 630.14276,305.08852 620.2366,310.5369 L 620.2366,303.20015 L 562.22369,303.20015 L 562.22369,310.5369 C 555.62991,304.96469 547.0549,303.20015 537.45831,303.20015 L 325.24994,303.20015 L 310.88602,336.10716 L 296.36731,303.20015 L 229.59365,303.20015 L 229.59365,318.24512 L 222.04021,303.20015 L 165.04887,303.20015 L 138.7047,363.72056 L 138.7047,35.424454 L 916.49249,35.424454 L 916.49249,460.58416 M 860.8942,412.78697 L 829.75173,412.78697 L 788.36259,344.1559 L 788.39354,412.78697 L 743.90872,412.78697 L 735.48849,392.29362 L 689.9821,392.29362 L 681.59283,412.78697 L 656.1464,412.78697 C 645.40442,412.78697 631.9692,410.31043 624.35384,402.60221 C 616.67657,394.77015 612.77603,384.33774 612.77603,367.68302 C 612.77603,354.09301 615.19065,341.67937 624.50862,331.928 C 631.5358,324.65317 642.71118,321.21697 657.78711,321.21697 L 678.6829,321.21697 L 678.6829,340.84353 L 658.2205,340.81258 C 650.1408,340.81258 645.59016,342.01989 641.31813,346.29192 C 637.47949,350.0996 634.91009,357.40538 634.91009,367.03293 C 634.91009,376.7843 636.8294,383.78052 641.13239,388.48594 C 644.35189,392.04596 650.41941,393.1604 656.30118,393.1604 L 666.11447,393.1604 L 696.91641,321.21697 L 729.48289,321.21697 L 766.53809,407.80294 L 766.53809,321.21697 L 799.9404,321.21697 L 838.38866,384.95687 L 838.3577,321.21697 L 860.8942,321.21697 L 860.8942,412.78697 z M 579.71424,412.78697 L 602.09595,412.78697 L 602.09595,321.18601 L 579.71424,321.18601 L 579.71424,412.78697 z M 555.87756,325.64378 C 548.81943,321.61941 540.61589,321.21697 529.53338,321.21697 L 479.16679,321.21697 L 479.16679,412.78697 L 501.02224,412.78697 L 501.02224,379.44657 L 524.48744,379.44657 C 532.44332,379.44657 537.24161,380.15858 540.36824,383.47095 C 544.42357,387.77393 543.95922,395.76077 543.95922,401.20915 L 543.95922,412.78697 L 565.96945,412.78697 L 565.96945,394.61537 C 565.96945,386.65949 565.41223,382.44938 562.34752,378.02256 C 560.49011,375.36029 556.37287,372.07887 551.57457,370.25243 C 557.33253,367.99258 567.14581,360.4701 567.14581,345.95139 C 567.14581,335.70472 562.90474,329.69911 555.87756,325.64378 M 464.02895,393.65571 L 412.85748,393.71763 L 412.85748,375.57698 L 462.79068,375.60794 L 462.79068,356.78625 L 412.85748,356.78625 L 412.85748,340.28631 L 464.02895,340.28631 L 464.02895,321.21697 L 391.00203,321.21697 L 391.00203,412.78697 L 464.02895,412.78697 L 464.02895,393.65571 z M 374.68783,321.21697 L 338.28272,321.21697 L 311.9695,383.31616 L 283.45835,321.21697 L 247.67238,321.21697 L 247.70333,407.83389 L 210.61717,321.21697 L 178.05069,321.21697 L 138.89043,412.78697 L 162.72711,412.78697 L 171.11639,392.29362 L 216.62278,392.29362 L 225.04301,412.78697 L 269.52783,412.78697 L 269.52783,340.99832 L 301.32038,412.78697 L 320.54451,412.78697 L 352.2442,341.09119 L 352.2442,412.78697 L 374.68783,412.78697 L 374.68783,321.21697 z M 727.62549,373.22427 L 712.70434,336.85012 L 697.81416,373.22427 L 727.62549,373.22427 z M 538.38701,358.76748 C 535.44612,360.53201 531.88609,360.65584 527.67598,360.65584 L 501.02224,360.65584 L 501.02224,340.28631 L 527.98555,340.28631 C 531.85514,340.28631 535.78664,340.41014 538.38701,341.86511 C 541.1112,343.38199 542.87573,346.19905 542.87573,350.06864 C 542.87573,354.00014 541.17311,357.15773 538.38701,358.76748 M 178.94844,373.22427 L 193.83863,336.85012 L 208.75977,373.22427 L 178.94844,373.22427 M 921.25982,541.31931 C 921.25982,560.79109 909.03191,570.14002 886.89785,570.14002 L 844.67287,570.14002 L 844.67287,550.51346 L 886.74307,550.51346 C 890.7984,550.51346 893.70833,549.95624 895.53478,548.28457 C 896.98975,546.92248 898.10419,544.87933 898.10419,542.30993 C 898.10419,539.58573 896.98975,537.54259 895.44191,536.24241 C 893.8012,534.84935 891.57232,534.29213 887.82655,534.19926 C 867.39511,533.64204 841.70103,534.84935 841.70103,505.81194 C 841.70103,492.68629 850.02839,478.57002 873.02924,478.57002 L 916.61631,478.57002 L 916.61631,498.22754 L 876.71309,498.22754 C 872.78158,498.22754 870.15026,498.35137 868.01425,499.77538 C 865.69249,501.29226 864.76379,503.45923 864.76379,506.40012 C 864.76379,509.80536 866.74502,512.18903 869.56208,513.17964 C 871.79097,513.95356 874.29846,514.1393 877.95136,514.20122 L 889.68396,514.51078 C 901.81899,514.78939 909.74392,516.80158 914.66604,521.87848 C 918.99998,526.42912 921.25982,531.78464 921.25982,541.31931 M 829.22547,521.87848 C 824.30335,516.83254 816.31651,514.78939 804.18147,514.51078 L 792.47983,514.20122 C 788.82694,514.1393 786.3504,513.95356 784.09056,513.17964 C 781.30445,512.18903 779.32322,509.80536 779.32322,506.40012 C 779.32322,503.45923 780.25192,501.29226 782.54272,499.77538 C 784.67874,498.35137 787.34101,498.22754 791.30348,498.22754 L 831.39244,498.22754 L 831.39244,478.57002 L 787.58867,478.57002 C 764.58782,478.57002 756.26046,492.65533 756.26046,505.81194 C 756.26046,534.88031 781.95454,533.64204 802.35503,534.19926 C 806.10079,534.29213 808.36063,534.84935 809.97038,536.24241 C 811.51822,537.54259 812.66362,539.58573 812.66362,542.30993 C 812.66362,544.87933 811.51822,546.92248 810.06325,548.28457 C 808.23681,549.95624 805.35783,550.51346 801.27154,550.51346 L 758.82987,550.51346 L 758.82987,570.14002 L 801.42633,570.14002 C 823.56039,570.14002 835.78829,560.79109 835.78829,541.31931 C 835.78829,531.78464 833.55941,526.42912 829.22547,521.87848 M 745.82804,551.10164 L 694.65657,551.07068 L 694.65657,532.99195 L 744.62073,532.99195 L 744.62073,514.1393 L 694.65657,514.17026 L 694.65657,497.67032 L 745.82804,497.67032 L 745.82804,478.57002 L 672.80112,478.57002 L 672.80112,570.14002 L 745.82804,570.14002 L 745.82804,551.10164 z M 649.42879,483.02779 C 642.3397,478.97246 634.16712,478.57002 623.11557,478.57002 L 572.71802,478.57002 L 572.71802,570.14002 L 594.54251,570.14002 L 594.54251,536.86154 L 618.06963,536.83058 C 626.02551,536.83058 630.79284,537.54259 633.95043,540.824 C 638.00576,545.15794 637.51045,553.11382 637.51045,558.56221 L 637.51045,570.14002 L 659.55164,570.14002 L 659.55164,551.99938 C 659.52068,544.0435 658.99442,539.83339 655.89875,535.40657 C 654.0723,532.71334 649.95506,529.43193 645.18772,527.60548 C 650.88376,525.34564 660.69704,517.85411 660.69704,503.30445 C 660.69704,493.08873 656.45597,487.08312 649.42879,483.02779 M 525.66379,478.57002 L 455.7635,478.57002 L 427.87149,508.62901 L 401.06296,478.57002 L 313.02203,478.57002 L 313.02203,570.14002 L 399.70087,570.14002 L 427.65479,539.95721 L 454.55619,570.14002 L 497.12169,570.14002 L 497.12169,539.49286 L 524.3017,539.49286 C 543.402,539.49286 562.34752,534.19926 562.34752,508.8457 C 562.34752,483.5231 542.90669,478.57002 525.66379,478.57002 M 631.9692,516.18245 C 628.99735,517.88507 625.43733,518.00889 621.22721,518.00889 L 594.54251,518.03985 L 594.54251,497.67032 L 621.53678,497.67032 C 625.40637,497.67032 629.33787,497.79415 631.9692,499.21816 C 634.69339,500.766 636.42697,503.58306 636.42697,507.45265 C 636.42697,511.38415 634.72435,514.54174 631.9692,516.18245 M 525.41614,520.70213 L 497.12169,520.70213 L 497.12169,497.67032 L 525.66379,497.67032 C 533.49585,497.67032 538.88232,500.92078 538.88232,508.8457 C 538.88232,516.70871 533.7435,520.70213 525.41614,520.70213 M 441.77106,524.57172 L 475.26624,488.50713 L 475.26624,561.78171 L 441.77106,524.57172 z M 388.61836,551.07068 L 334.90843,551.07068 L 334.90843,532.99195 L 382.79849,532.99195 L 382.79849,514.1393 L 334.90843,514.17026 L 334.90843,497.67032 L 389.57802,497.67032 L 413.56948,524.29311 L 388.61836,551.07068"
     id="path5348"
     style="fill:url(#radialGradient2510);fill-opacity:1;fill-rule:nonzero;stroke:none" />
</svg>
